<?xml version="1.0" encoding="utf-8"?>
<!-- Generator: Adobe Illustrator 28.3.0, SVG Export Plug-In . SVG Version: 6.00 Build 0)  -->
<svg version="1.1" id="Capa_1" xmlns="http://www.w3.org/2000/svg" xmlns:xlink="http://www.w3.org/1999/xlink" x="0px" y="0px"
	 viewBox="0 0 353.6 383.3" style="enable-background:new 0 0 353.6 383.3;" xml:space="preserve">
<style type="text/css">
	.st0{fill:#9dbfe6ff;}
</style>
<path class="st0" d="M33.8,383.3c-4.1-2.4-5.4-6-5.2-10.7c0.3-7,0.2-14,0-21c0-1.7-0.8-3.7-1.9-4.9C9.4,327,0.5,304,0.2,277.8
	c-0.2-16-0.4-32,0.1-47.9c0.2-5.3,2.4-10.6,3.7-15.8c0.5-1.9,1.2-3.8,1.3-5.7c0.3-9.2-0.2-18.5,0.8-27.6c1.2-11,7.6-19.3,17-25.1
	c0.5-0.3,1.1-0.6,1.6-0.9c3.6-2,8.7-3.1,10.4-6.2c1.9-3.4,0.7-8.5,0.7-12.8c0-4.7-0.3-9.5,0.1-14.2c0.2-2.3,1.1-5,2.7-6.6
	c14-14.4,28.1-28.7,42.4-42.8c1.7-1.7,4.8-2.7,7.3-2.8c7.7-0.4,15.5-0.2,23.2-0.1c19.2,0.1,30.9,16,25.3,34.4
	c-0.1,0.5-0.2,0.9-0.5,1.8c8.6,0,16.9,0,25.2-0.1c0.6,0,1.5-0.6,1.7-1.1c3.6-8.3,7.2-16.6,11-25.5c-4,0-7.3,0-10.6,0
	c-10.9-0.2-18.3-7.6-18.3-18.5c-0.1-10.9-0.1-21.7,0-32.6c0.1-10.4,7.4-18.1,17.9-18.1c32.1-0.1,64.1-0.1,96.2,0
	c10.4,0,17.7,7.7,17.8,18.2c0.1,11,0.1,22,0,32.9c-0.1,10.4-7.6,17.8-18,18c-3.4,0.1-6.7,0-10.7,0c0.5,1.5,0.9,2.6,1.3,3.6
	c2.7,6.4,5.6,12.8,8.2,19.3c1.1,2.8,2.5,3.9,5.7,3.9c17.8-0.2,35.7-0.1,53.5-0.1c21.8,0,36.3,14.6,36.3,36.4c0,11.4,0,22.7,0,34.1
	c0,5.5-2.8,8.9-7.3,9c-4.6,0.1-7.6-3.4-7.6-9.1c0-11.6,0-23.2,0-34.8c0-12.5-8.1-20.6-20.6-20.6c-69.9,0-139.8,0-209.6,0.1
	c-1.9,0-4.1,1.3-5.7,2.5c-2.6,1.8-5,4.1-8,6.6c6.2,3.5,11.1,6.2,16,8.9c12.6,7,25.2,14.1,37.9,21.1c5.5,3,10.7,6.4,13.9,12.6
	c14.9-18,33.6-26.4,56.6-23.8c16.3,1.9,29.7,9.7,40,22.5c21,26.1,16.4,64.8-9.9,85.6c-26.3,20.9-67.4,17.5-89.3-14.8
	c-2.5,1.8-4.8,3.9-7.4,5.4c-2.7,1.5-5.7,2.4-8.9,3.7c0,1.2,0.1,2.8,0,4.3c-0.8,19.2-21.3,30.6-38.1,21.1c-7-4-13.8-8.4-21.7-13.1
	c0.4,6.7,0.1,12.7,1.3,18.4c1.7,8.2,9.3,13.6,18.2,14c2.2,0.1,4.5,0,6.7,0c69.1,0,138.3,0,207.4,0c13.2,0,21.2-8.1,21.3-21.2
	c0-4.4,0-8.7,0-13.1c0-5.1,0-10.2,0-15.4c0-5.1,3-8.5,7.4-8.5c4.4,0,7.5,3.3,7.5,8.4c0,9.5,0,19,0,28.5c0,21.5-14.7,36.2-36.2,36.2
	c-49.5,0-99.1,0-148.6,0c-1.6,0-3.2,0-4.8,0c-1.2,6.9-2.1,13.5-3.6,20c-4,17.3-11.7,32.8-22.9,46.6c-1.9,2.3-4.2,4.2-6.3,6.2h-4.5
	c-6.4-4.1-7-8.2-2.1-14c8.5-10.1,14.9-21.5,19-34.1c2.6-7.9,4.4-16,4.8-24.7c-1.7,0-3.1,0-4.4,0c-13,0-25.9,0-38.9,0
	c-6.3,0-12.4-1.1-18-4.3c-11.5-6.6-17.5-16.7-17.9-30c-0.2-6.2,0-12.4,0-18.8c-2.5,0-4.5,0.2-6.5,0c-3.8-0.5-6.4-3.4-6.5-7.1
	c-0.1-3.5,2.1-7.3,5.5-7.4c7.8-0.2,15.7-2,23.1,3.1c8.9,6.1,18.4,11.5,27.7,17c7.5,4.4,16.2-0.4,16.1-8.7c0-4.4-2.3-7.4-6-9.6
	c-11.6-7-23.2-14.2-34.8-21.2c-1.9-1.1-4.4-1.7-6.6-1.8c-5.8-0.2-11.7,0-17.6-0.1c-4.9-0.1-8.1-3-8.1-7.4c-0.1-4.5,3.2-7.5,8.3-7.5
	c6.7-0.1,13.5-0.3,20.2,0.1c3.2,0.2,6.7,1,9.4,2.6c13.4,7.8,26.5,16,39.8,23.8c2.3,1.4,5.4,2.2,8,2.2c4.5-0.1,8-3.6,8.9-7.8
	c1-4.9-0.9-9.2-5.7-11.9c-19.6-11-39.2-21.9-58.8-32.7c-1.1-0.6-3.2-0.5-4.4,0.1c-6.3,3-12.4,6.4-18.7,9.5c-1.8,0.9-4.1,1.4-6,1.2
	c-3.2-0.5-5.3-2.8-5.8-6.1c-0.5-3.6,1.2-6.3,4.3-7.9c7.5-3.9,15.1-7.6,22.5-11.8c4.3-2.4,7.9-2.4,12.2,0.1
	c14.7,8.4,29.6,16.6,44.4,24.8c5.7,3.2,12,1.6,14.9-3.6c2.9-5.1,1.1-11.3-4.4-14.4c-19.7-11.1-39.4-22-59.1-32.9
	c-1-0.5-2.7-0.7-3.7-0.2c-16.9,8.9-33.8,17.8-50.5,26.8c-6.2,3.4-9.8,8.9-10.6,15.9c-0.5,4.6-0.1,9.4-0.1,14.2
	c4.4,0.2,7.8,1.8,8.7,6.3c0.9,4.4-1.9,6.8-5.3,9c-6,3.9-8.8,9.6-8.8,16.8c0,14.6,0.1,29.2,0,43.8c-0.2,25.3,8.2,47.1,25.5,65.5
	c1.7,1.8,2.8,4.8,2.9,7.3c0.3,8.8,0,17.7,0.2,26.6c0.1,4.5-1.4,7.7-5.4,9.7L33.8,383.3L33.8,383.3z M211.2,63.7c15.3,0,30.7,0,46,0
	c4.5,0,5-0.5,5-4.9c0-9.8-0.1-19.7,0.1-29.5c0-3.5-1.2-4.9-4.8-4.9c-30.8,0.1-61.6,0-92.4,0c-4.4,0-4.9,0.5-4.9,5.1
	c0,9.7,0,19.4,0,29.2c0,4.5,0.5,5,4.9,5C180.6,63.8,195.9,63.7,211.2,63.7L211.2,63.7z M211.3,162.8c-25.3,0-45.9,20.6-45.9,46
	s20.5,45.9,45.9,45.9s45.9-20.6,45.9-45.9C257.2,183.4,236.6,162.8,211.3,162.8L211.3,162.8z M50.9,140.9
	c13.4-7.7,27.9-12.3,37.4-24.8c6-7.9,13.1-12.5,23.8-11.1c6.8,0.9,11.6-4.4,11.5-10.4c-0.1-6.1-4.8-10.3-11.7-10.4
	c-6.3-0.1-12.7-0.1-19.1,0.1c-1.5,0.1-3.4,0.8-4.5,1.9c-11.9,11.9-23.8,23.8-35.5,35.8c-0.8,0.8-1.7,2-1.8,3.1
	C50.8,130,50.9,135.1,50.9,140.9L50.9,140.9z M179.3,105.1h63.9c-3.7-8.6-7.2-16.9-10.8-25c-0.3-0.7-1.7-1.3-2.6-1.3
	c-12.3-0.1-24.7-0.1-37,0c-0.9,0-2.3,0.6-2.6,1.3C186.5,88.3,183,96.5,179.3,105.1L179.3,105.1z"/>
<path class="st0" d="M352.9,23.4c0.1,3.9-2.3,6.7-6.4,7.5c-7.3,1.4-8.2,2.3-9.7,9.7c-0.8,4-3.8,6.6-7.5,6.6c-3.9,0-6.7-2.7-7.4-7
	c-0.9-6-2.8-8-9-9.1c-4.6-0.8-7.3-3.7-7.2-7.6c0.1-3.8,2.7-6.5,7.2-7.2c6.1-1,8.1-3.1,9-9.1c0.6-4.3,3.5-7,7.4-7
	c3.7,0,6.7,2.6,7.4,6.6c1.4,7.3,2.3,8.2,9.7,9.6C350.5,17,352.8,19.7,352.9,23.4L352.9,23.4z"/>
<path class="st0" d="M353.5,211.2c-0.1,4.1-3.7,7.5-7.8,7.4c-4-0.2-7.2-3.6-7.2-7.6c0.1-4.1,3.6-7.5,7.8-7.3
	C350.3,203.8,353.6,207.2,353.5,211.2L353.5,211.2z"/>
<path class="st0" d="M211.4,178.1c17,0,30.6,13.7,30.6,30.7c0,17.1-13.9,30.9-31,30.8c-16.9-0.1-30.5-14-30.4-31
	C180.6,191.6,194.4,178,211.4,178.1L211.4,178.1z M227.1,208.6c-0.1-8.6-7-15.6-15.7-15.6c-8.9,0-15.9,7-15.8,15.9
	c0.1,8.6,7.1,15.6,15.7,15.7C220,224.6,227.1,217.4,227.1,208.6L227.1,208.6z"/>
</svg>
