<?xml version="1.0" encoding="utf-8"?>
<!-- Generator: Adobe Illustrator 28.3.0, SVG Export Plug-In . SVG Version: 6.00 Build 0)  -->
<svg version="1.1" id="Capa_1" xmlns="http://www.w3.org/2000/svg" xmlns:xlink="http://www.w3.org/1999/xlink" x="0px" y="0px"
	 viewBox="0 0 131 114.1" style="enable-background:new 0 0 131 114.1;" xml:space="preserve">
<style type="text/css">
	.st0{fill:#9dbfe6ff;}
</style>
<path class="st0" d="M131,7.5c-9.3,8.9-18.3,16.8-26.5,25.3c-6.5,6.8-8.8,15.5-8.3,24.9c0.3,6,2.7,8.6,8.8,9.2
	c3.6,0.4,7.4,0.4,10.8,1.3c7.3,1.9,11.8,6.8,12.7,14.4c0.5,3.8,0.7,7.7,0.1,11.4c-2,13-10,19.7-23.3,20
	c-10.8,0.2-20.7-1.9-27.5-11.1c-5.5-7.4-6.8-16.2-7.2-25C69.4,49.6,82,28.3,104.4,12.1c5.2-3.8,11-6.9,16.3-10.6
	c3.3-2.3,5.6-2.2,7.4,1.6C129.1,5.1,130.5,6.7,131,7.5L131,7.5z"/>
<path class="st0" d="M60.9,8.2c-7.3,6.1-14.6,11.8-21.4,18C31.4,33.9,26,43,25.4,54.6C25,63,27.9,66.2,36.2,67.2
	c5.3,0.6,11.1,1.7,15.4,4.5c8,5.2,7.2,14.1,6.4,22.3c-1.4,12.6-9.9,20-22.6,20.1c-4.5,0-9-0.2-13.4-1.3C9,109.5,1.5,98.3,0.3,82.1
	c-2.3-29,9.1-51.5,32-68.6c6-4.5,12.5-8.1,18.8-12.3c3.1-2.1,5-1.5,6.7,1.8C58.6,4.9,59.9,6.6,60.9,8.2L60.9,8.2z"/>
</svg>
