<?xml version="1.0" encoding="utf-8"?>
<!-- Generator: Adobe Illustrator 28.0.0, SVG Export Plug-In . SVG Version: 6.00 Build 0)  -->
<svg version="1.1" id="Capa_1" xmlns="http://www.w3.org/2000/svg" xmlns:xlink="http://www.w3.org/1999/xlink" x="0px" y="0px"
	 viewBox="0 0 398.3 351.6" style="enable-background:new 0 0 398.3 351.6;" xml:space="preserve">
<style type="text/css">
	.st0{fill:url(#SVGID_1_);}
</style>
<linearGradient id="SVGID_1_" gradientUnits="userSpaceOnUse" x1="-3.775526e-03" y1="175.7901" x2="398.3324" y2="175.7901">
	<stop  offset="0" style="stop-color:#FFFFFF"/>
	<stop  offset="1" style="stop-color:#565656"/>
</linearGradient>
<path class="st0" d="M199.7,65.3c10.5-17.6,23-33.5,39.6-45.8c33.6-25,69.3-25.6,106.9-3.4C375.7,33.5,390,60.4,396,92.5
	c7.7,41.4-4.5,78-29.2,111.1c-15.9,21.3-36.2,38-57,54.2c-28.7,22.5-57.3,45.1-85.5,68.3c-9.3,7.6-17,17.2-24.9,25.5
	c-9.7-9.7-19.1-20.9-30.2-30c-29.2-24-59.1-47.1-88.9-70.4C55.4,231.9,33,210.5,18,182.5C-5.9,138-6.3,93.5,18.4,49
	C35.6,18,87.4-8.8,126.2,2.7c21.5,6.4,38.8,19,53.1,35.7C186.5,46.9,192.8,56.1,199.7,65.3L199.7,65.3z"/>
</svg>
