<?xml version="1.0" encoding="utf-8"?>
<!-- Generator: Adobe Illustrator 28.3.0, SVG Export Plug-In . SVG Version: 6.00 Build 0)  -->
<svg version="1.1" id="Capa_1" xmlns="http://www.w3.org/2000/svg" xmlns:xlink="http://www.w3.org/1999/xlink" x="0px" y="0px"
	 viewBox="0 0 356.7 180.2" style="enable-background:new 0 0 356.7 180.2;" xml:space="preserve">
<style type="text/css">
	.st0{fill:#9dbfe6ff;}
</style>
<path class="st0" d="M0,89.9c1-19.1,1.7-38.1,6.9-56.5c1.3-4.8,3.1-9.5,5.3-14C19.5,4.2,32.8-1.8,48,0.6c25.5,4,50.2,10.1,72.9,22.8
	c11.3,6.3,21.5,14.1,30.8,23.1c1.3,1.3,3.6,2.2,5.5,2.2c14.4,0.2,28.8,0.2,43.1,0c1.6,0,3.6-0.5,4.6-1.6
	C227,25.1,254,12.4,284.1,5.5c9.4-2.2,18.8-3.9,28.4-5.2c12.2-1.5,22,3,29.2,13.1c6.8,9.6,9.9,20.7,11.6,32.1
	c4.8,31.9,5.1,63.8-1.4,95.4c-1.5,7.6-4.4,15.1-8,22c-7.2,13.7-18.4,18.7-33.7,16.5c-25.4-3.6-50-9.8-72.6-22.2
	c-11.6-6.4-22.1-14.2-31.4-23.5c-1.8-1.9-3.7-2.5-6.2-2.5c-14.2,0.1-28.5,0-42.8,0.1c-1.6,0-3.6,0.5-4.6,1.6
	c-22.1,22.1-49.1,34.8-79.1,41.7c-9.2,2.1-18.6,3.8-28,5.1c-12.4,1.7-22.3-2.8-29.5-13.1c-7.1-10.1-10.3-21.7-11.8-33.6
	C2.1,118.8,1.3,104.3,0,89.9L0,89.9z M143.2,64.9c0.4-1.8,0.7-3.8,1.4-5.6c1.1-2.8,0.5-4.7-1.8-6.8c-12.2-11.5-26.1-20.5-41.5-27.1
	c-17.8-7.6-36.5-11.7-55.6-14.6c-9.6-1.4-17.4,1.3-22,9.8C20.3,27,17.4,33.9,16,40.8c-6.4,30.9-6.1,62.1-1.3,93.2
	c1.4,8.9,3.9,17.6,8.7,25.4c4.7,7.6,11.6,11.4,20.5,10.2c17.9-2.4,35.4-6.2,52.3-12.7c17.7-6.8,33.5-16.6,47.2-29.8
	c1.7-1.6,2.2-3,1.4-5.2c-0.8-2.2-1.2-4.6-1.9-7c-1,0.2-1.8,0.5-2.6,0.7c-14.5,3.5-29,7.2-43.6,10.5c-5.6,1.3-8.4-0.4-8.8-4.1
	c-0.5-3.6,2.1-5.2,7.6-6.4c14.6-3.3,29-7.1,43.6-10.7c1.9-0.5,2.5-1.5,2.4-3.5c-0.3-5.1-0.3-10.2-0.3-15.4c0-3.2,1.2-7.4-0.4-9.4
	c-1.7-2.2-5.9-2.8-9.2-3.6c-12.6-3-25.3-5.8-37.9-8.6c-4-0.9-6.1-3-5.6-6.1c0.5-3.2,3-4.8,7.1-4.2c4.2,0.6,8.4,1.1,12.6,2.1
	C119.4,58.8,131.1,61.9,143.2,64.9L143.2,64.9z M214.2,115c-0.5,1.9-0.8,4.1-1.6,6c-1.1,2.7-0.5,4.4,1.7,6.5
	c12.1,11.5,25.8,20.4,41.1,27c17.7,7.6,36.2,11.9,55.2,14.6c11.8,1.7,19.4-1.6,24.6-12.3c2.7-5.4,4.9-11.3,6.1-17.2
	c6.3-31.1,6.1-62.3,1.2-93.5c-1.4-8.9-3.9-17.6-8.7-25.3c-4.8-7.6-11.8-11.6-20.6-9.9c-14.7,2.8-29.5,5.6-43.8,9.8
	c-21,6.2-39.6,17.1-55.3,32.5c-0.9,0.9-2.1,2.5-1.9,3.6c0.4,2.9,1.4,5.7,2.1,8.7c6.5-1.9,12.6-4.1,18.9-5.5
	c9.7-2.2,19.5-4.1,29.3-5.9c3.8-0.7,6.3,1.1,6.8,4.2c0.5,3-1.5,5.3-5.2,6.1c-0.9,0.2-1.7,0.2-2.6,0.4c-14.4,3.6-28.8,7.2-43.2,10.8
	c-2.1,0.5-2.6,1.6-2.5,3.7c0.2,7,0.3,14,0,21c-0.1,2.8,0.5,4.1,3.3,5.1c14.5,4.9,29.2,8.6,44.3,10.7c4.3,0.6,6.4,3.1,5.8,6.3
	c-0.6,3.1-3.1,4.7-7.2,4c-6.5-1.1-13.1-2-19.5-3.6C233.2,120.3,223.8,117.6,214.2,115L214.2,115z M155.6,59.4
	c-5.6,15.1-5.6,47,0,61.3H202c5.3-20.5,5.4-40.8,0-61.3H155.6L155.6,59.4z"/>
<path class="st0" d="M336,130.6c-1.3,5-2.5,10.1-4.1,15.1c-0.9,2.9-3.3,4.2-6.2,3.4c-3.1-0.9-4.4-3.3-3.7-6.4
	c1-4.6,2.2-9.2,3.3-13.8c0.8-3.1,2.7-4.8,6-4.3C334.6,125.1,335.8,127.3,336,130.6L336,130.6z"/>
</svg>
