<?xml version="1.0" encoding="utf-8"?>
<!-- Generator: Adobe Illustrator 28.3.0, SVG Export Plug-In . SVG Version: 6.00 Build 0)  -->
<svg version="1.1" id="Capa_1" xmlns="http://www.w3.org/2000/svg" xmlns:xlink="http://www.w3.org/1999/xlink" x="0px" y="0px"
	 viewBox="0 0 381.3 384" style="enable-background:new 0 0 381.3 384;" xml:space="preserve">
<style type="text/css">
	.st0{fill:#9dbfe6ff;}
</style>
<path class="st0" d="M190.6,0c4,2.5,5.1,6.2,5.1,10.8c-0.1,46.5,0,93-0.1,139.4c0,5.1,0,10.3-1.1,15.2c-4,16.9-21.4,26.5-37.7,21.4
	c-16.5-5.1-25.4-22.7-19.5-38.9c5.8-16.2,23.7-24.2,39.8-17.6c1,0.4,2,0.8,3.4,1.3V55.1c-40.1,11.1-80.1,22.2-120.2,33.4
	c0,1.7,0,3.2,0,4.6c0,34.4,0.1,68.7,0,103.1c0,12.3-7.8,23.1-19.1,27.6c-11.4,4.4-24.3,1.6-32.7-7.3c-9.8-10.3-11-25.9-3-37.6
	c8-11.7,23-16.2,36.2-10.9c1.1,0.5,2.2,0.9,3.7,1.5c0-1.8,0-3.3,0-4.8c0-39,0-78,0-117c0-6.7,1.5-8.6,7.8-10.3
	c43.2-12,86.3-24,129.4-36c1-0.3,2-0.9,3-1.3C187.1,0,188.9,0,190.6,0z M180.3,17.5c-10,2.8-19.4,5.4-28.9,8
	C122,33.7,92.6,41.9,63.2,50.1c-1.1,0.3-2.9,1.3-2.9,2.1c-0.2,6.8-0.1,13.6-0.1,20.7c1.2-0.3,2-0.5,2.7-0.7c14.4-4,28.8-8,43.2-12
	c23.8-6.6,47.6-13.2,71.3-19.8c1.1-0.3,2.8-1.7,2.8-2.6C180.4,31.2,180.3,24.6,180.3,17.5L180.3,17.5z M30.1,210.8
	c8.3,0,15-6.6,15-14.9c0-8.4-6.5-15.1-14.8-15.1c-8.5-0.1-15.2,6.6-15.2,15.1C15.1,204.2,21.7,210.8,30.1,210.8L30.1,210.8z
	 M180.3,158.4c-0.1-8.9-6.3-15.3-14.9-15.2c-8.3,0-15,6.7-15.1,15c0,8.3,7,15.3,15.4,15.1C173.9,173.1,180.4,166.4,180.3,158.4
	L180.3,158.4z"/>
<path class="st0" d="M248.4,384c-7.2-1.9-14.3-4.1-20.4-8.7c-13.9-10.5-20.4-28.5-16.1-45.3c4.4-17.2,18.5-29.8,36-32.3
	c11.6-1.7,22,1.1,31.6,7.7c0.8,0.5,1.6,1,3,2v-5c0-61.9,0-123.7,0-185.6c0-1.9,0-3.8,0.4-5.6c0.7-3.5,3.7-5.7,7.4-5.6
	c3.4,0.1,6.8,2.3,6.9,5.7c0.5,12,8,19.3,16.7,25.8c10.5,7.7,21.3,14.9,31.8,22.6c12.8,9.4,23.9,20.5,30.3,35.5
	c7.6,17.8,6.5,35.9,1,53.9c-2.2,7.4-5.3,14.5-8.3,21.7c-2,4.8-6.1,6.5-10.2,4.7c-4.1-1.8-5.5-6.1-3.3-10.8
	c5-11.1,9.1-22.4,10.6-34.6c2-15.9-1.4-30.6-12.3-42.5c-6.4-7-13.7-13.2-21.2-18.9c-11.1-8.4-22.8-16.1-34.4-24.3
	c-0.1,0.5-0.4,1.3-0.4,2c0,62.6-0.1,125.2,0.1,187.8c0,11.7-1.5,22.6-8.6,32.2c-6.9,9.3-16.2,15-27.7,17.1c-0.6,0.1-1.1,0.5-1.7,0.7
	L248.4,384L248.4,384z M282.2,340.5c1-12.7-10-28.5-28.5-28.4c-15.8,0-28.3,13.2-28,29c0.3,15.7,13.1,28.1,28.8,27.9
	C270,368.8,282.4,356.1,282.2,340.5z"/>
<path class="st0" d="M55.6,384c-4.3-1.9-9-3.1-12.8-5.8c-12.6-8.6-16.3-25.2-9.1-38.6c7.2-13.5,23.3-19.3,37.6-13.7
	c1.1,0.5,2.3,0.9,3.9,1.5v-4.4c0-28.6,0-57.2,0-85.8c0-1,0-2,0-3c0-3.4,1.2-6.1,4.4-7.7c3-1.5,5.8-0.7,8.4,1.3
	c9.5,7.1,19.9,12.2,31.5,15.1c17.1,4.3,33.1,1.8,48.2-7.5c1.9-1.2,4.4-2.1,6.6-2.1c3.2,0.1,5.4,2.3,6.2,5.6c0.9,3.5-0.5,6.2-3.3,8.1
	c-10,6.7-21,10.9-33,12.3c-17.9,2.1-34.4-2.3-50.2-10.2c-1-0.5-2-1-3.3-1.6c-0.1,1.2-0.3,2.1-0.3,3c0,34,0,68,0.1,101.9
	c0,15.4-9.2,27.2-24.4,30.8c-0.5,0.1-0.9,0.4-1.3,0.6L55.6,384L55.6,384z M75.1,353.9c0-8.4-6.5-14.9-14.9-15
	c-8.4,0-15,6.5-15.1,14.9c-0.1,8.5,6.8,15.3,15.2,15.2C68.6,368.9,75.1,362.3,75.1,353.9L75.1,353.9z"/>
</svg>
