<?xml version="1.0" encoding="utf-8"?>
<!-- Generator: Adobe Illustrator 28.3.0, SVG Export Plug-In . SVG Version: 6.00 Build 0)  -->
<svg version="1.1" id="Capa_1" xmlns="http://www.w3.org/2000/svg" xmlns:xlink="http://www.w3.org/1999/xlink" x="0px" y="0px"
	 viewBox="0 0 359.3 384" style="enable-background:new 0 0 359.3 384;" xml:space="preserve">
<style type="text/css">
	.st0{fill:#9dbfe6ff;}
</style>
<path class="st0" d="M307.9,0c2.1,1.1,4.3,1.9,6.2,3.2c5.6,3.8,8,9.4,7.9,16.1c0,1.6,0,3.2,0,5.5c2.1,0,4,0,5.9,0
	c17.8,0.2,31,12.8,31.1,30.6c0.3,26.6,0.1,53.2,0.1,79.9c0,4.4-2.2,6.9-5.6,6.9c-3.4,0-5.6-2.6-5.6-7c0-12.1,0-24.2,0-36.6H73.4
	c0,1.4,0,2.7,0,4.1c0,32.6,0,65.2-0.1,97.9c0,2.6,0.7,4.4,2.5,6.3c10.4,10.2,20.7,20.6,30.5,30.4c2.9-0.4,5.2-1,7.5-1
	c64.6-0.1,129.2,0,193.9,0c1,0,2,0,3,0.1c2.8,0.4,4.5,2,4.9,4.9c0.3,3-1.1,5.1-4,5.9c-1.5,0.4-3.2,0.4-4.8,0.4
	c-61.5,0-123,0-184.5,0h-5.4c1.4,1.5,2.2,2.5,3.1,3.4c13.5,13.5,27,27.1,40.6,40.5c2.5,2.5,3.6,5.1,3.5,8.6
	c-0.2,8.9-0.2,17.8,0.1,26.6c0.1,2,1.2,4.1,2.4,5.8c1.3,1.9,3.4,3.3,4.9,5.2c2.1,2.6,2,5.7-0.4,7.7c-2.4,2.1-5,2-7.5,0.1
	c-0.3-0.2-0.6-0.5-0.8-0.8c-4-6-9.8-7.1-16.6-6.6c-6.8,0.5-13.7,0-20.6,0.1c-3.1,0.1-5.4-0.9-7.6-3.1
	c-13.5-13.7-27.2-27.2-40.8-40.9c-0.9-1-1.5-2.3-2.3-3.5c-0.4,0.3-0.8,0.6-1.2,0.8c-0.1,1.1-0.2,2.1-0.2,3.2c0,19,0,38,0,57
	c0,13.4,7.9,21.2,21.2,21.2c61.4,0,122.7,0,184.1,0c1,0,2,0,3,0c3.1-0.1,6.1,0.2,7.5,3.6c1.4,3.5-0.8,5.6-3,7.6h-198
	c-0.2-0.1-0.4-0.4-0.6-0.4c-17.3-4.6-25.4-15.2-25.4-33c0-22.6,0-45.2,0-67.8c0-2.6-0.8-4.4-2.6-6.2C41.8,258.8,24.1,241,6.3,223.2
	c-8.5-8.5-8.4-18.9,0.1-27.5c5.5-5.6,11-11.2,16.7-16.7c7.3-6.9,17.6-7,25-0.1c3.9,3.6,7.6,7.6,11.5,11.3c0.6,0.6,1.4,1.1,2.6,2
	v-5.2c0-19.9,0-39.7,0-59.6c0-23.6-0.1-47.2,0-70.8C62.3,39.6,73.1,27.1,89.6,25c3.2-0.4,6.4-0.1,9.9-0.1c0-2.6,0-4.6,0-6.5
	c0.2-9.6,5.7-15.2,14.2-18.4h7.5c11.9,3.9,15.7,12.7,14.2,24.5h26.5c0-3.4-0.4-6.5,0.1-9.6c1.3-8,6.8-12.3,14-15h7.5
	c11.8,4,15.6,12.8,14.2,24.5h25.8c0.5-4.4,0.5-8.6,1.6-12.5c1.9-6.5,7.1-9.9,13.2-12c2.5,0,5,0,7.5,0c0.3,0.2,0.5,0.5,0.8,0.6
	c9.2,3.4,13.3,9.2,13.4,18.9c0,1.7,0,3.4,0,5h26c0-1.8-0.3-3.4,0-4.9c0.8-3.8,1.3-7.9,2.9-11.4c2.2-4.7,6.9-6.6,11.5-8.3
	C302.9,0,305.4,0,307.9,0z M99.5,36.5c-16.1-2.4-26,6-26,21.5c0,6.6,0,13.2,0,19.9c0,3,0,5.9,0,8.8H348c0-10.2,0-20,0-29.9
	c-0.1-14.5-11.3-23.3-25.9-20.2c0,2.2,0.1,4.4,0,6.6c-0.5,10.2-8.3,17.7-18.2,17.6S286.3,53.2,286,43c-0.1-2.2,0-4.4,0-6.7h-26.1
	c0,2.6,0.1,5,0,7.3c-0.5,9.8-8.4,17.3-18.2,17.2c-9.8-0.1-17.5-7.6-17.8-17.5c-0.1-2.3,0-4.7,0-7.3h-26.1c0,2.2,0,3.9,0,5.7
	c-0.1,11.2-7.6,19.2-18.1,19.1c-10.4,0-17.9-8-17.9-19c0-1.8,0-3.7,0-5.8h-26.1c0,2.5,0,4.6,0,6.7c-0.2,10.4-7.9,18.1-18,18.1
	c-10,0-17.8-7.8-18-18.2C99.4,40.6,99.5,38.5,99.5,36.5L99.5,36.5z M35.5,235.5c29.5,29.5,58.8,58.8,88,88c2.8-2.8,5.8-5.8,8.5-8.5
	c-29.3-29.3-58.6-58.7-87.7-87.7C41.5,230,38.3,232.9,35.5,235.5L35.5,235.5z M150,297.7c-29.6-29.6-58.9-58.9-87.8-87.8
	c-3,2.7-6.2,5.6-8.8,8c29.5,29.5,58.9,58.9,88.2,88.2C144.2,303.4,147.2,300.4,150,297.7L150,297.7z M53.8,200.6
	c-4.5-4.5-8.9-9.1-13.5-13.5c-2.8-2.7-6.4-2.7-9.1,0c-6.1,5.9-12.1,11.9-18,18c-2.4,2.4-2.7,5.8-0.5,8.2c4.6,5,9.7,9.5,14.5,14
	C35.8,218.5,44.7,209.7,53.8,200.6L53.8,200.6z M310.8,30.6c0-4,0.1-8,0-12c-0.1-4.5-3-7.4-6.8-7.4c-3.9,0-6.6,2.9-6.7,7.4
	c-0.1,7.9-0.1,15.7,0,23.6c0.1,4.6,2.7,7.3,6.7,7.3c4,0,6.7-2.8,6.8-7.3C310.9,38.4,310.8,34.5,310.8,30.6L310.8,30.6z M124.3,30.7
	c0-4.1,0.1-8.2,0-12.4c-0.1-4.2-2.9-7-6.7-7c-3.8,0-6.7,2.9-6.8,7c-0.1,8.1-0.1,16.2,0,24.3c0.1,4.2,2.9,7,6.8,7
	c3.9,0,6.6-2.7,6.7-6.9C124.4,38.7,124.3,34.7,124.3,30.7z M172.9,30.8c0,3.9-0.1,7.7,0,11.6c0.1,4.5,2.8,7.3,6.9,7.2
	c3.9,0,6.6-2.8,6.6-7c0.1-8,0.1-16,0-24c0-4.4-2.9-7.4-6.9-7.3c-3.9,0.1-6.6,3-6.7,7.5C172.8,22.8,172.9,26.8,172.9,30.8L172.9,30.8
	z M235.1,30.5c0,4-0.1,8,0,12c0.1,4.3,2.7,7,6.6,7.1c4,0.1,6.9-2.7,6.9-7.2c0.1-8,0.1-16,0-24c-0.1-4.4-3.1-7.3-7-7.2
	c-3.8,0.1-6.4,3-6.5,7.2C235,22.5,235.1,26.5,235.1,30.5L235.1,30.5z M152.6,312.7c-4.6,4.6-9.3,9.4-13.8,13.8h13.8V312.7z"/>
<path class="st0" d="M304.9,384c-2.9-1.6-4.7-3.9-3.6-7.4c1.1-3.5,4-4,7.3-3.9c6.6,0.1,13.2,0.1,19.9,0c11.1-0.1,19.1-7.9,19.5-19
	c0.2-5.6,0.1-11.2,0.1-16.9c0-58,0-116,0-174c0-1.7,0-3.5,0.4-5.2c0.6-2.8,2.7-4.1,5.5-4.1c2.9,0.1,4.7,1.6,5.2,4.5
	c0.2,1.5,0.2,3,0.2,4.5c0,62.6,0,125.2,0,187.8c0,18.1-7.8,28.4-25.2,33.1c-0.2,0.1-0.4,0.3-0.6,0.5L304.9,384L304.9,384z"/>
<path class="st0" d="M210.4,210c-32,0-64,0-96,0c-1.1,0-2.3,0.1-3.4-0.1c-3.2-0.3-5-2.2-5.3-5.3c-0.3-3,2-5.4,5.2-5.8
	c0.7-0.1,1.5-0.1,2.2-0.1c65,0,130,0,195,0c1.1,0,2.3-0.1,3.3,0.2c2.8,0.9,4.4,2.8,4.1,5.9c-0.2,2.9-2,4.5-4.7,5
	c-1.2,0.2-2.5,0.1-3.7,0.1C274.9,210,242.7,210,210.4,210L210.4,210z"/>
<path class="st0" d="M210.7,124.3c32.1,0,64.2,0,96.3,0c1.4,0,2.8-0.1,4.1,0.2c2.7,0.4,4.2,2.1,4.5,4.8c0.3,2.7-0.8,4.8-3.3,5.6
	c-1.5,0.5-3.2,0.6-4.8,0.6c-64.5,0-129,0-193.4,0c-1.5,0-3-0.1-4.4-0.5c-2.8-0.8-4.1-2.9-3.8-5.7c0.3-2.8,1.9-4.6,4.8-4.9
	c1.4-0.2,2.7-0.1,4.1-0.1C146.7,124.3,178.7,124.3,210.7,124.3L210.7,124.3z"/>
<path class="st0" d="M210.8,161.5c31.9,0,63.7,0,95.6,0c1.1,0,2.2-0.1,3.4,0c3.7,0.2,5.9,2.3,5.9,5.5c0.1,3.4-2.1,5.5-6,5.7
	c-1.1,0.1-2.2,0-3.4,0c-63.7,0-127.5,0-191.2,0c-1.5,0-3,0-4.5-0.1c-3.1-0.4-4.7-2.4-4.8-5.3c-0.1-3,1.6-5,4.5-5.6
	c1.3-0.3,2.7-0.2,4.1-0.2C146.5,161.5,178.7,161.5,210.8,161.5L210.8,161.5z"/>
<path class="st0" d="M244.9,273.3c20.6,0,41.2,0,61.9,0c1.5,0,3,0,4.5,0.3c3,0.6,4.5,2.6,4.3,5.7c-0.1,2.8-1.7,4.7-4.5,5.1
	c-1.4,0.2-2.7,0.2-4.1,0.2c-41.4,0-82.8,0-124.1,0c-6.2,0-8.7-1.7-8.7-5.7c0.1-3.9,2.7-5.5,8.9-5.5
	C203.7,273.3,224.3,273.3,244.9,273.3L244.9,273.3z"/>
</svg>
