<?xml version="1.0" encoding="utf-8"?>
<!-- Generator: Adobe Illustrator 28.3.0, SVG Export Plug-In . SVG Version: 6.00 Build 0)  -->
<svg version="1.1" id="Capa_1" xmlns="http://www.w3.org/2000/svg" xmlns:xlink="http://www.w3.org/1999/xlink" x="0px" y="0px"
	 viewBox="0 0 449 47.7" style="enable-background:new 0 0 449 47.7;" xml:space="preserve">
<style type="text/css">
	.st0{fill:#052ca2ff;}
	.st1{fill:#9dbfe6ff;}
</style>
<polygon class="st0" points="0,16.3 0,47.7 449,47.7 449,36 372.2,34.6 178.5,16.8 80.8,10.5 22.9,12 "/>
<path class="st0" d="M256,25.4c0,0,49.7-16.1,101.6-14.9S449,25.1,449,25.1V37l-140.2,1.5L256,25.4z"/>
<path class="st1" d="M0,16.3c0,0,51.6-38.9,268.5,3.5c0,0,140.8,24,180.5,5.3v15c0,0-73.4,20.3-242.2-5.8C37.9,8.2,0,16.3,0,16.3z"
	/>
</svg>
